<svg xmlns="http://www.w3.org/2000/svg" xmlns:xlink="http://www.w3.org/1999/xlink" viewBox="0,0,256,256" width="50px" height="50px" fill-rule="nonzero"><g fill="#e4272b" fill-rule="nonzero" stroke="none" stroke-width="1" stroke-linecap="butt" stroke-linejoin="miter" stroke-miterlimit="10" stroke-dasharray="" stroke-dashoffset="0" font-family="none" font-weight="none" font-size="none" text-anchor="none" style="mix-blend-mode: normal"><g transform="scale(5.12,5.12)"><path d="M24.375,4c-1.90234,0 -3.67578,1.41406 -4.4375,3.375l-0.625,1.625h-5.3125v-1c0,-0.55078 -0.44922,-1 -1,-1h-7c-0.55078,0 -1,0.44922 -1,1v1.40625c-2.86328,0.87891 -5,3.45313 -5,6.59375v21c0,3.85547 3.14453,7 7,7h36c3.85547,0 7,-3.14453 7,-7v-21c0,-3.85547 -3.14453,-7 -7,-7h-2.3125l-0.625,-1.625c-0.76172,-1.96094 -2.53125,-3.375 -4.4375,-3.375zM24.375,6h11.25c0.76563,0 2.08594,0.86719 2.5625,2.09375l0.875,2.28125c0.15234,0.38281 0.52734,0.62891 0.9375,0.625h3c2.77344,0 5,2.22656 5,5v21c0,2.77344 -2.22656,5 -5,5h-36c-2.77344,0 -5,-2.22656 -5,-5v-21c0,-2.48828 1.79297,-4.53906 4.15625,-4.9375c0.48047,-0.07422 0.83594,-0.48437 0.84375,-0.96875v-1.09375h5v1c0,0.55078 0.44922,1 1,1h7c0.41016,0.00391 0.78516,-0.24219 0.9375,-0.625l0.875,-2.28125c0.47656,-1.22656 1.79688,-2.09375 2.5625,-2.09375zM30,13c-7.16406,0 -13,5.83594 -13,13c0,7.16406 5.83594,13 13,13c7.16406,0 13,-5.83594 13,-13c0,-7.16406 -5.83594,-13 -13,-13zM7,14c-1.10547,0 -2,0.89453 -2,2c0,1.10547 0.89453,2 2,2c1.10547,0 2,-0.89453 2,-2c0,-1.10547 -0.89453,-2 -2,-2zM30,15c6.08594,0 11,4.91406 11,11c0,6.08594 -4.91406,11 -11,11c-6.08594,0 -11,-4.91406 -11,-11c0,-6.08594 4.91406,-11 11,-11z"></path></g></g></svg>