<svg width="31" height="29" viewBox="0 0 31 29" fill="none" xmlns="http://www.w3.org/2000/svg">
<path d="M6.91111 1.21667C7.22222 2.15 6.71667 3.15556 5.78889 3.46667L4.33333 3.95V10.6667C4.33333 13.6111 6.72222 16 9.66667 16C12.6111 16 15 13.6111 15 10.6667V3.95L13.55 3.46667C12.6167 3.15556 12.1167 2.15 12.4278 1.21667C12.7389 0.283333 13.7444 -0.216667 14.6778 0.0944445L16.1278 0.577778C17.5778 1.06111 18.5556 2.41667 18.5556 3.95V10.6667C18.5556 14.9556 15.5222 18.5333 11.4833 19.3722C11.8333 22.4778 14.4667 24.8889 17.6667 24.8889C21.1056 24.8889 23.8889 22.1056 23.8889 18.6667V14.7389C22.3167 14.0556 21.2222 12.4889 21.2222 10.6667C21.2222 8.21111 23.2111 6.22222 25.6667 6.22222C28.1222 6.22222 30.1111 8.21111 30.1111 10.6667C30.1111 12.4889 29.0167 14.0556 27.4444 14.7389V18.6667C27.4444 24.0667 23.0667 28.4444 17.6667 28.4444C12.5056 28.4444 8.28333 24.45 7.91667 19.3833C3.84445 18.5667 0.777779 14.9778 0.777779 10.6667V3.95C0.777779 2.42222 1.75556 1.06111 3.21111 0.577778L4.66111 0.0944445C5.59445 -0.216667 6.6 0.288889 6.91111 1.21667ZM25.6667 12.4444C26.1382 12.4444 26.5903 12.2571 26.9237 11.9237C27.2571 11.5903 27.4444 11.1382 27.4444 10.6667C27.4444 10.1952 27.2571 9.74299 26.9237 9.40959C26.5903 9.07619 26.1382 8.88889 25.6667 8.88889C25.1952 8.88889 24.743 9.07619 24.4096 9.40959C24.0762 9.74299 23.8889 10.1952 23.8889 10.6667C23.8889 11.1382 24.0762 11.5903 24.4096 11.9237C24.743 12.2571 25.1952 12.4444 25.6667 12.4444Z" fill="white"/>
</svg>
