<svg width="50" height="40" viewBox="0 0 50 40" fill="none" xmlns="http://www.w3.org/2000/svg">
<path d="M25 4.875C19.3403 4.875 14.6875 7.41875 11.1198 10.693C7.77781 13.7695 5.46878 17.4219 4.28822 20C5.46878 22.5781 7.7778 26.2305 11.1111 29.307C14.6875 32.5812 19.3403 35.125 25 35.125C30.6598 35.125 35.3125 32.5812 38.8802 29.307C42.2223 26.2305 44.5313 22.5781 45.7118 20C44.5313 17.4219 42.2223 13.7695 38.8889 10.693C35.3125 7.41875 30.6598 4.875 25 4.875ZM8.28128 7.67656C12.3698 3.9125 17.9861 0.75 25 0.75C32.0139 0.75 37.6302 3.9125 41.7188 7.67656C45.7813 11.4148 48.4983 15.875 49.7917 18.943C50.0782 19.6219 50.0782 20.3781 49.7917 21.057C48.4983 24.125 45.7813 28.5938 41.7188 32.3234C37.6302 36.0875 32.0139 39.25 25 39.25C17.9861 39.25 12.3698 36.0875 8.28128 32.3234C4.21878 28.5938 1.50176 24.125 0.217041 21.057C-0.0694173 20.3781 -0.0694173 19.6219 0.217041 18.943C1.50176 15.875 4.21878 11.4062 8.28128 7.67656ZM25 26.875C28.8368 26.875 31.9445 23.7984 31.9445 20C31.9445 16.2016 28.8368 13.125 25 13.125C24.9393 13.125 24.8872 13.125 24.8264 13.125C24.9393 13.5633 25 14.0273 25 14.5C25 17.5336 22.5087 20 19.4445 20C18.967 20 18.4983 19.9398 18.0556 19.8281C18.0556 19.8883 18.0556 19.9398 18.0556 20C18.0556 23.7984 21.1632 26.875 25 26.875ZM25 9C27.9469 9 30.773 10.1589 32.8568 12.2218C34.9405 14.2847 36.1111 17.0826 36.1111 20C36.1111 22.9174 34.9405 25.7153 32.8568 27.7782C30.773 29.8411 27.9469 31 25 31C22.0532 31 19.227 29.8411 17.1433 27.7782C15.0595 25.7153 13.8889 22.9174 13.8889 20C13.8889 17.0826 15.0595 14.2847 17.1433 12.2218C19.227 10.1589 22.0532 9 25 9Z" fill="white"/>
</svg>
