<svg width="32" height="28" viewBox="0 0 32 28" fill="none" xmlns="http://www.w3.org/2000/svg">
<path d="M2.975 16.775L14.2688 27.3188C14.7375 27.7563 15.3562 28 16 28C16.6437 28 17.2625 27.7563 17.7313 27.3188L29.025 16.775C30.925 15.0062 32 12.525 32 9.93125V9.56875C32 5.2 28.8438 1.475 24.5375 0.756249C21.6875 0.281249 18.7875 1.2125 16.75 3.25L16 4L15.25 3.25C13.2125 1.2125 10.3125 0.281249 7.4625 0.756249C3.15625 1.475 0 5.2 0 9.56875V9.93125C0 12.525 1.075 15.0062 2.975 16.775Z" fill="white"/>
</svg>
