<svg width="117" height="117" viewBox="0 0 117 117" fill="none" xmlns="http://www.w3.org/2000/svg">
<rect width="116.384" height="116.384" rx="58.1922" fill="#E4272B"/>
<circle cx="57.6534" cy="57.6534" r="44.9547" stroke="white" stroke-width="6"/>
<g clip-path="url(#clip0_57_46)">
<path d="M40.3821 62.2289L55.5581 76.3971C56.188 76.985 57.0194 77.3125 57.8845 77.3125C58.7495 77.3125 59.5809 76.985 60.2108 76.3971L75.3868 62.2289C77.9399 59.8522 79.3845 56.518 79.3845 53.0326V52.5455C79.3845 46.675 75.1432 41.6696 69.3567 40.7037C65.527 40.0655 61.6302 41.3168 58.8923 44.0547L57.8845 45.0625L56.8766 44.0547C54.1388 41.3168 50.2419 40.0655 46.4122 40.7037C40.6257 41.6696 36.3845 46.675 36.3845 52.5455V53.0326C36.3845 56.518 37.829 59.8522 40.3821 62.2289Z" fill="white"/>
</g>
<defs>
<clipPath id="clip0_57_46">
<rect width="43" height="43" fill="white" transform="translate(36.3845 37)"/>
</clipPath>
</defs>
</svg>
