<svg width="25" height="25" viewBox="0 0 25 25" fill="none" xmlns="http://www.w3.org/2000/svg">
<path fill-rule="evenodd" clip-rule="evenodd" d="M12.2621 0.523911C8.93218 0.523911 8.51428 0.538341 7.20643 0.59733C5.90114 0.656572 5.01017 0.861388 4.23057 1.1619C3.42415 1.47229 2.74009 1.88749 2.05858 2.56321C1.37656 3.23867 0.957639 3.91666 0.64345 4.71567C0.339478 5.4886 0.132573 6.37191 0.0738218 7.66511C0.0153263 8.96135 0 9.37579 0 12.6761C0 15.9765 0.0148154 16.3894 0.0740772 17.6856C0.134105 18.9793 0.340755 19.8624 0.643705 20.6351C0.957128 21.4343 1.37605 22.1123 2.05781 22.7878C2.73907 23.4638 3.42313 23.88 4.22904 24.1904C5.00915 24.4909 5.90038 24.6957 7.20541 24.7549C8.51326 24.8139 8.9309 24.8283 12.2605 24.8283C15.5907 24.8283 16.0073 24.8139 17.3152 24.7549C18.6205 24.6957 19.5124 24.4909 20.2926 24.1904C21.0987 23.88 21.7818 23.4638 22.463 22.7878C23.145 22.1123 23.564 21.4343 23.8781 20.6353C24.1796 19.8624 24.3865 18.9791 24.4478 17.6859C24.5065 16.3896 24.5219 15.9765 24.5219 12.6761C24.5219 9.37579 24.5065 8.9616 24.4478 7.66536C24.3865 6.37166 24.1796 5.4886 23.8781 4.71592C23.564 3.91666 23.145 3.23867 22.463 2.56321C21.781 1.88724 21.099 1.47204 20.2918 1.1619C19.5101 0.861388 18.6187 0.656572 17.3134 0.59733C16.0055 0.538341 15.5892 0.523911 12.2582 0.523911H12.2621ZM11.1625 2.71394C11.4889 2.71343 11.8532 2.71394 12.2624 2.71394C15.5361 2.71394 15.9241 2.72558 17.2169 2.78381C18.4123 2.83799 19.0611 3.03597 19.4933 3.20231C20.0655 3.42256 20.4735 3.68586 20.9023 4.11119C21.3315 4.53652 21.5971 4.94159 21.8199 5.5087C21.9877 5.93655 22.1877 6.57961 22.2421 7.76445C22.3009 9.0455 22.3136 9.43032 22.3136 12.6734C22.3136 15.9166 22.3009 16.3014 22.2421 17.5824C22.1874 18.7673 21.9877 19.4103 21.8199 19.8382C21.5976 20.4053 21.3315 20.8091 20.9023 21.2342C20.4732 21.6595 20.0658 21.9228 19.4933 22.1431C19.0616 22.3101 18.4123 22.5076 17.2169 22.5618C15.9243 22.62 15.5361 22.6327 12.2624 22.6327C8.98842 22.6327 8.60041 22.62 7.30789 22.5618C6.11244 22.5071 5.46362 22.3091 5.03117 22.1428C4.45898 21.9225 4.05028 21.6592 3.62115 21.2339C3.19201 20.8086 2.92635 20.4045 2.70361 19.8372C2.53579 19.4093 2.33578 18.7663 2.28137 17.5814C2.22262 16.3004 2.21087 15.9156 2.21087 12.6704C2.21087 9.42525 2.22262 9.04246 2.28137 7.76141C2.33603 6.57657 2.53579 5.93352 2.70361 5.50515C2.92584 4.93805 3.19201 4.53297 3.62115 4.10765C4.05028 3.68232 4.45898 3.41902 5.03117 3.19825C5.46337 3.03116 6.11244 2.83369 7.30789 2.77926C8.43897 2.72862 8.87731 2.71343 11.1625 2.7109V2.71394ZM18.8065 4.73164C17.9942 4.73164 17.3351 5.38406 17.3351 6.1894C17.3351 6.99448 17.9942 7.64766 18.8065 7.64766C19.6187 7.64766 20.2778 6.99448 20.2778 6.1894C20.2778 5.38431 19.6187 4.73113 18.8065 4.73113V4.73164ZM12.2624 6.43565C8.7851 6.43565 5.96582 9.22991 5.96582 12.6763C5.96582 16.1227 8.7851 18.9157 12.2624 18.9157C15.7397 18.9157 18.5579 16.1227 18.5579 12.6763C18.5579 9.22991 15.7394 6.43565 12.2621 6.43565H12.2624ZM12.2618 8.62566C14.5189 8.62566 16.3488 10.4391 16.3488 12.6764C16.3488 14.9134 14.5189 16.7271 12.2618 16.7271C10.0045 16.7271 8.1748 14.9134 8.1748 12.6764C8.1748 10.4391 10.0045 8.62566 12.2618 8.62566Z" fill="#E4272B"/>
</svg>
