<svg width="42" height="37" viewBox="0 0 42 37" fill="none" xmlns="http://www.w3.org/2000/svg">
<path d="M18.6667 0H23.3333C24.624 0 25.6667 1.0334 25.6667 2.3125V6.9375C25.6667 8.2166 24.624 9.25 23.3333 9.25H18.6667C17.376 9.25 16.3333 8.2166 16.3333 6.9375V2.3125C16.3333 1.0334 17.376 0 18.6667 0ZM4.66667 4.625H14V8.09375C14 10.0088 15.5677 11.5625 17.5 11.5625H24.5C26.4323 11.5625 28 10.0088 28 8.09375V4.625H37.3333C39.9073 4.625 42 6.69902 42 9.25V32.375C42 34.926 39.9073 37 37.3333 37H4.66667C2.09271 37 0 34.926 0 32.375V9.25C0 6.69902 2.09271 4.625 4.66667 4.625ZM12.8333 31.6018C12.8333 32.0281 13.1833 32.375 13.6135 32.375H28.3937C28.824 32.375 29.174 32.0281 29.174 31.6018C29.174 29.4699 27.4312 27.75 25.2875 27.75H16.7344C14.5833 27.75 12.8479 29.4771 12.8479 31.6018H12.8333ZM21 25.4375C22.2377 25.4375 23.4247 24.9502 24.2998 24.0829C25.175 23.2155 25.6667 22.0391 25.6667 20.8125C25.6667 19.5859 25.175 18.4095 24.2998 17.5421C23.4247 16.6748 22.2377 16.1875 21 16.1875C19.7623 16.1875 18.5753 16.6748 17.7002 17.5421C16.825 18.4095 16.3333 19.5859 16.3333 20.8125C16.3333 22.0391 16.825 23.2155 17.7002 24.0829C18.5753 24.9502 19.7623 25.4375 21 25.4375Z" fill="white"/>
</svg>
