<svg width="36" height="49" viewBox="0 0 36 49" fill="none" xmlns="http://www.w3.org/2000/svg">
<path d="M27.8625 23.8205C29.2125 21.849 30 19.4469 30 16.8438C30 10.0775 24.6281 4.59375 18 4.59375C11.3719 4.59375 6 10.0775 6 16.8438C6 19.4469 6.7875 21.849 8.1375 23.8205C8.48437 24.3277 8.89687 24.902 9.3375 25.5145C10.5469 27.2084 11.9906 29.2373 13.0687 31.2375C14.0437 33.0559 14.5406 34.9508 14.7844 36.7404L10.2187 36.75C10.0125 35.6016 9.66562 34.4818 9.1125 33.4482C8.18437 31.7256 7.03125 30.1082 5.87812 28.4908C5.39062 27.8113 4.90312 27.1318 4.43437 26.4428C2.5875 23.7248 1.5 20.4135 1.5 16.8438C1.5 7.54141 8.8875 0 18 0C27.1125 0 34.5 7.54141 34.5 16.8438C34.5 20.4135 33.4125 23.7248 31.5562 26.4428C31.0875 27.1318 30.6 27.8113 30.1125 28.4908C28.9594 30.0986 27.8062 31.716 26.8781 33.4482C26.325 34.4818 25.9781 35.6016 25.7719 36.75H21.2156C21.4594 34.9604 21.9562 33.0559 22.9312 31.2471C24.0094 29.2469 25.4531 27.218 26.6625 25.524C27.1031 24.9115 27.5062 24.3373 27.8531 23.8301L27.8625 23.8205ZM18 12.25C15.5156 12.25 13.5 14.3076 13.5 16.8438C13.5 17.6859 12.825 18.375 12 18.375C11.175 18.375 10.5 17.6859 10.5 16.8438C10.5 12.6137 13.8562 9.1875 18 9.1875C18.825 9.1875 19.5 9.87656 19.5 10.7188C19.5 11.5609 18.825 12.25 18 12.25ZM18 49C13.8562 49 10.5 45.5738 10.5 41.3438V39.8125H25.5V41.3438C25.5 45.5738 22.1437 49 18 49Z" fill="white"/>
</svg>
