<svg width="24" height="24" viewBox="0 0 24 24" fill="none" xmlns="http://www.w3.org/2000/svg">
<path d="M7.72969 1.15298C7.36875 0.281102 6.41719 -0.182961 5.50781 0.0654765L1.38281 1.19048C0.567188 1.41548 0 2.1561 0 2.99985C0 14.5967 9.40313 23.9999 21 23.9999C21.8438 23.9999 22.5844 23.4327 22.8094 22.617L23.9344 18.492C24.1828 17.5827 23.7188 16.6311 22.8469 16.2702L18.3469 14.3952C17.5828 14.0764 16.6969 14.2967 16.1766 14.9389L14.2828 17.2499C10.9828 15.6889 8.31094 13.017 6.75 9.71704L9.06094 7.82798C9.70312 7.30298 9.92344 6.42173 9.60469 5.65766L7.72969 1.15766V1.15298Z" fill="#E4272B"/>
</svg>
