<svg width="41" height="33" viewBox="0 0 41 33" fill="none" xmlns="http://www.w3.org/2000/svg">
<g clip-path="url(#clip0_55_12)">
<path d="M16.4 0H36.9C39.1614 0 41 1.8498 41 4.125V18.5625C41 20.8377 39.1614 22.6875 36.9 22.6875H16.4C14.1386 22.6875 12.3 20.8377 12.3 18.5625V4.125C12.3 1.8498 14.1386 0 16.4 0ZM30.4937 6.87715C30.2055 6.44531 29.725 6.1875 29.2125 6.1875C28.7 6.1875 28.2195 6.44531 27.9312 6.87715L24.3438 12.2912L23.2355 10.8926C22.9408 10.5252 22.4987 10.3125 22.0375 10.3125C21.5763 10.3125 21.1278 10.5252 20.8395 10.8926L16.7395 16.0488C16.368 16.5129 16.2975 17.151 16.5537 17.6859C16.81 18.2209 17.3481 18.5625 17.9375 18.5625H23.0625H26.1375H35.3625C35.9327 18.5625 36.4516 18.2467 36.7206 17.7439C36.9897 17.2412 36.9577 16.6289 36.6437 16.1584L30.4937 6.87715ZM21.525 6.1875C21.525 5.64049 21.309 5.11589 20.9246 4.72909C20.5401 4.3423 20.0187 4.125 19.475 4.125C18.9313 4.125 18.4099 4.3423 18.0254 4.72909C17.641 5.11589 17.425 5.64049 17.425 6.1875C17.425 6.73451 17.641 7.25911 18.0254 7.64591C18.4099 8.0327 18.9313 8.25 19.475 8.25C20.0187 8.25 20.5401 8.0327 20.9246 7.64591C21.309 7.25911 21.525 6.73451 21.525 6.1875ZM4.1 8.25H10.25V24.75V26.8125C10.25 27.9533 11.1661 28.875 12.3 28.875H20.5C21.6339 28.875 22.55 27.9533 22.55 26.8125V24.75H32.8V28.875C32.8 31.1502 30.9614 33 28.7 33H4.1C1.83859 33 0 31.1502 0 28.875V12.375C0 10.0998 1.83859 8.25 4.1 8.25ZM4.6125 12.375C4.04875 12.375 3.5875 12.8391 3.5875 13.4062V14.4375C3.5875 15.0047 4.04875 15.4688 4.6125 15.4688H5.6375C6.20125 15.4688 6.6625 15.0047 6.6625 14.4375V13.4062C6.6625 12.8391 6.20125 12.375 5.6375 12.375H4.6125ZM4.6125 19.0781C4.04875 19.0781 3.5875 19.5422 3.5875 20.1094V21.1406C3.5875 21.7078 4.04875 22.1719 4.6125 22.1719H5.6375C6.20125 22.1719 6.6625 21.7078 6.6625 21.1406V20.1094C6.6625 19.5422 6.20125 19.0781 5.6375 19.0781H4.6125ZM4.6125 25.7812C4.04875 25.7812 3.5875 26.2453 3.5875 26.8125V27.8438C3.5875 28.4109 4.04875 28.875 4.6125 28.875H5.6375C6.20125 28.875 6.6625 28.4109 6.6625 27.8438V26.8125C6.6625 26.2453 6.20125 25.7812 5.6375 25.7812H4.6125ZM26.1375 26.8125V27.8438C26.1375 28.4109 26.5987 28.875 27.1625 28.875H28.1875C28.7512 28.875 29.2125 28.4109 29.2125 27.8438V26.8125C29.2125 26.2453 28.7512 25.7812 28.1875 25.7812H27.1625C26.5987 25.7812 26.1375 26.2453 26.1375 26.8125Z" fill="white"/>
</g>
<defs>
<clipPath id="clip0_55_12">
<rect width="41" height="33" fill="white"/>
</clipPath>
</defs>
</svg>
