<svg width="330" height="224" viewBox="0 0 330 224" fill="none" xmlns="http://www.w3.org/2000/svg">
<g clip-path="url(#clip0_139_1595)">
<path d="M296.045 218.685C288.644 224.008 279.053 224.276 269.782 223.622C268.487 223.53 267.202 223.423 265.928 223.308C265.92 223.306 265.91 223.307 265.902 223.305C265.841 223.299 265.78 223.293 265.721 223.29C265.458 223.265 265.195 223.241 264.935 223.216L264.997 223.333L265.19 223.697C265.12 223.575 265.051 223.456 264.982 223.334C264.961 223.298 264.938 223.261 264.918 223.225C262.516 219.052 260.134 214.727 259.526 209.962C258.898 205.017 260.664 199.417 265.023 196.987C265.595 196.669 266.201 196.416 266.829 196.232C267.089 196.153 267.354 196.088 267.621 196.032C269.256 195.669 270.958 195.748 272.553 196.26C274.147 196.772 275.576 197.699 276.693 198.945C277.81 200.191 278.574 201.712 278.907 203.351C279.239 204.989 279.129 206.687 278.587 208.269C282.283 204.485 281.594 198.347 280.319 193.217C279.041 188.087 277.495 182.379 280.093 177.771C281.537 175.206 284.077 173.615 286.928 172.974C287.015 172.955 287.103 172.936 287.19 172.92C290.586 172.233 294.117 172.851 297.077 174.65C302.528 178.078 305.327 184.58 306.236 190.948C307.7 201.196 304.46 212.633 296.045 218.685Z" fill="#F2F2F2"/>
<path d="M293.656 202.258C293.441 204.518 292.897 206.735 292.041 208.839C291.252 210.701 290.189 212.434 288.887 213.982C286.18 217.145 282.751 219.613 278.89 221.178C275.969 222.373 272.909 223.194 269.782 223.622C268.487 223.53 267.201 223.423 265.928 223.308C265.92 223.306 265.91 223.307 265.902 223.305C265.841 223.299 265.78 223.293 265.721 223.29C265.458 223.265 265.195 223.241 264.935 223.216L264.997 223.333L265.19 223.697C265.12 223.575 265.051 223.456 264.982 223.334C264.961 223.298 264.938 223.261 264.918 223.225C267.262 220.893 269.013 218.034 270.022 214.888C271.032 211.742 271.272 208.4 270.721 205.142C270.145 201.907 268.811 198.854 266.829 196.232C267.089 196.153 267.354 196.088 267.621 196.032C268.374 197.06 269.035 198.153 269.596 199.298C271.608 203.379 272.249 208 271.426 212.474C270.661 216.523 268.755 220.27 265.931 223.275C266.178 223.257 266.428 223.237 266.672 223.215C271.3 222.824 275.918 221.83 280.116 219.796C283.704 218.099 286.819 215.548 289.186 212.366C291.729 208.866 292.849 204.656 293.041 200.377C293.189 195.767 292.705 191.158 291.603 186.679C290.533 182.112 288.908 177.693 286.763 173.52C286.715 173.425 286.706 173.316 286.736 173.214C286.767 173.112 286.836 173.026 286.928 172.974C287.005 172.922 287.099 172.903 287.19 172.92C287.235 172.932 287.276 172.954 287.311 172.983C287.346 173.013 287.374 173.051 287.393 173.093C287.657 173.609 287.917 174.125 288.167 174.646C290.247 178.991 291.778 183.577 292.726 188.299C293.646 192.854 294.137 197.619 293.656 202.258Z" fill="white"/>
<path d="M13.768 71.1976C13.5477 71.1974 13.3293 71.1562 13.1241 71.0762C12.7921 70.9489 12.5069 70.7238 12.3061 70.4308C12.1054 70.1378 11.9987 69.7907 12.0002 69.4358V51.0493C11.9995 50.427 11.7516 49.8303 11.3108 49.3902C10.87 48.9501 10.2723 48.7026 9.64889 48.7019H5.87741C4.31916 48.7001 2.82523 48.0814 1.72338 46.9814C0.621533 45.8814 0.00174641 44.39 0 42.8343V5.8675C0.00174745 4.31188 0.621533 2.82047 1.72338 1.72048C2.82523 0.620487 4.31916 0.00174347 5.87741 0H138.909C140.467 0.00174553 141.961 0.620487 143.063 1.72048C144.164 2.82047 144.784 4.31188 144.786 5.8675V42.8343C144.784 44.39 144.164 45.8814 143.063 46.9814C141.961 48.0813 140.467 48.7001 138.909 48.7018H36.2274C35.9015 48.7022 35.5792 48.7701 35.2808 48.9011C34.9825 49.0321 34.7146 49.2235 34.4941 49.4631L15.0629 70.6251C14.8989 70.8052 14.699 70.9492 14.476 71.0477C14.253 71.1463 14.0119 71.1974 13.768 71.1976ZM5.87741 0.78185C4.5268 0.783372 3.23195 1.31967 2.27692 2.27309C1.3219 3.2265 0.784695 4.51917 0.783169 5.8675V42.8343C0.784696 44.1827 1.3219 45.4753 2.27692 46.4288C3.23194 47.3822 4.5268 47.9185 5.87741 47.92H9.64889C10.4799 47.9209 11.2767 48.2509 11.8643 48.8376C12.4519 49.4242 12.7825 50.2197 12.7834 51.0493V69.4358C12.7834 69.6329 12.843 69.8254 12.9545 69.988C13.066 70.1507 13.2241 70.276 13.4081 70.3474C13.5921 70.4189 13.7934 70.4332 13.9857 70.3885C14.178 70.3437 14.3522 70.2421 14.4857 70.0968L33.9168 48.9347C34.2108 48.6153 34.5679 48.3602 34.9656 48.1856C35.3633 48.0109 35.793 47.9205 36.2275 47.92H138.909C140.259 47.9185 141.554 47.3822 142.509 46.4288C143.464 45.4753 144.001 44.1827 144.003 42.8343V5.8675C144.001 4.51917 143.464 3.2265 142.509 2.27309C141.554 1.31967 140.259 0.783373 138.909 0.78185H5.87741Z" fill="#CCCCCC"/>
<path d="M14.4164 16.6495C17.2568 16.6495 19.5594 14.3508 19.5594 11.5152C19.5594 8.67964 17.2568 6.38094 14.4164 6.38094C11.576 6.38094 9.27344 8.67964 9.27344 11.5152C9.27344 14.3508 11.576 16.6495 14.4164 16.6495Z" fill="#CCCCCC"/>
<path d="M132.908 39.925H11.877C11.5166 39.9254 11.1595 39.8549 10.8264 39.7175C10.4932 39.5801 10.1905 39.3784 9.9354 39.1241C9.68035 38.8698 9.47801 38.5678 9.33996 38.2354C9.20191 37.9029 9.13086 37.5466 9.13086 37.1867C9.13086 36.8268 9.20191 36.4705 9.33996 36.1381C9.47801 35.8056 9.68035 35.5036 9.9354 35.2493C10.1905 34.995 10.4932 34.7933 10.8264 34.6559C11.1595 34.5185 11.5166 34.448 11.877 34.4484H132.908C133.268 34.448 133.625 34.5185 133.959 34.6559C134.292 34.7933 134.595 34.995 134.85 35.2493C135.105 35.5036 135.307 35.8056 135.445 36.1381C135.583 36.4705 135.654 36.8268 135.654 37.1867C135.654 37.5466 135.583 37.9029 135.445 38.2354C135.307 38.5678 135.105 38.8698 134.85 39.1241C134.595 39.3784 134.292 39.5801 133.959 39.7175C133.625 39.8549 133.268 39.9254 132.908 39.925Z" fill="#CCCCCC"/>
<path d="M93.4786 28.2873H11.877C11.5166 28.2877 11.1595 28.2172 10.8264 28.0798C10.4932 27.9423 10.1905 27.7407 9.9354 27.4864C9.68035 27.2321 9.47801 26.9301 9.33996 26.5976C9.20191 26.2652 9.13086 25.9088 9.13086 25.549C9.13086 25.1891 9.20191 24.8328 9.33996 24.5003C9.47801 24.1679 9.68035 23.8659 9.9354 23.6115C10.1905 23.3572 10.4932 23.1556 10.8264 23.0182C11.1595 22.8808 11.5166 22.8102 11.877 22.8107H93.4786C93.8391 22.8102 94.1961 22.8808 94.5293 23.0182C94.8625 23.1556 95.1652 23.3572 95.4203 23.6115C95.6753 23.8659 95.8777 24.1679 96.0157 24.5003C96.1538 24.8328 96.2248 25.1891 96.2248 25.549C96.2248 25.9088 96.1538 26.2652 96.0157 26.5976C95.8777 26.9301 95.6753 27.2321 95.4203 27.4864C95.1652 27.7407 94.8625 27.9423 94.5293 28.0798C94.1961 28.2172 93.8391 28.2877 93.4786 28.2873Z" fill="#CCCCCC"/>
<path d="M13.768 201.609C13.5477 201.608 13.3293 201.567 13.1241 201.487C12.7922 201.36 12.5069 201.135 12.3062 200.842C12.1054 200.549 11.9987 200.202 12.0002 199.847V181.46C11.9995 180.838 11.7516 180.241 11.3108 179.801C10.87 179.361 10.2723 179.114 9.64889 179.113H5.87741C4.31916 179.111 2.82524 178.492 1.72339 177.392C0.621539 176.292 0.00175056 174.801 0 173.245V136.279C0.00174744 134.723 0.621534 133.232 1.72338 132.132C2.82523 131.032 4.31916 130.413 5.87741 130.411H138.909C140.467 130.413 141.961 131.032 143.063 132.132C144.164 133.232 144.784 134.723 144.786 136.279V173.245C144.784 174.801 144.164 176.292 143.063 177.392C141.961 178.492 140.467 179.111 138.909 179.113H36.2274C35.9015 179.113 35.5792 179.181 35.2808 179.312C34.9825 179.443 34.7146 179.635 34.4941 179.874L15.0629 201.036C14.8989 201.216 14.699 201.36 14.476 201.459C14.253 201.557 14.0119 201.608 13.768 201.609ZM5.87741 131.193C4.5268 131.194 3.23195 131.731 2.27692 132.684C1.3219 133.638 0.784693 134.93 0.783169 136.279V173.245C0.784695 174.594 1.3219 175.886 2.27692 176.84C3.23195 177.793 4.5268 178.33 5.87741 178.331H9.64889C10.4799 178.332 11.2767 178.662 11.8643 179.249C12.4519 179.835 12.7825 180.631 12.7834 181.46V199.847C12.7834 200.044 12.843 200.236 12.9545 200.399C13.066 200.562 13.2241 200.687 13.4081 200.759C13.5921 200.83 13.7934 200.844 13.9857 200.8C14.178 200.755 14.3522 200.653 14.4857 200.508L33.9168 179.346C34.2108 179.026 34.5679 178.771 34.9656 178.597C35.3633 178.422 35.793 178.332 36.2275 178.331H138.909C140.259 178.33 141.554 177.793 142.509 176.84C143.464 175.886 144.001 174.594 144.003 173.245V136.279C144.001 134.93 143.464 133.638 142.509 132.684C141.554 131.731 140.259 131.194 138.909 131.193L5.87741 131.193Z" fill="#CCCCCC"/>
<path d="M210.219 133.836C209.975 133.836 209.734 133.785 209.511 133.686C209.288 133.588 209.088 133.444 208.924 133.264L189.493 112.102C189.272 111.862 189.005 111.671 188.706 111.54C188.408 111.409 188.086 111.341 187.76 111.34H85.0786C83.5203 111.339 82.0264 110.72 80.9245 109.62C79.8227 108.52 79.2029 107.028 79.2012 105.473V68.506C79.2029 66.9504 79.8227 65.459 80.9246 64.359C82.0264 63.259 83.5203 62.6402 85.0786 62.6385H218.11C219.668 62.6402 221.162 63.259 222.264 64.3589C223.366 65.4589 223.985 66.9504 223.987 68.506V105.473C223.985 107.028 223.366 108.52 222.264 109.62C221.162 110.72 219.668 111.339 218.11 111.34H214.338C213.715 111.341 213.117 111.589 212.676 112.029C212.236 112.469 211.988 113.065 211.987 113.688V132.074C211.988 132.429 211.882 132.776 211.681 133.069C211.48 133.362 211.195 133.587 210.863 133.714C210.658 133.795 210.439 133.836 210.219 133.836ZM85.0786 63.4203C83.728 63.4218 82.4331 63.9581 81.4781 64.9115C80.5231 65.865 79.9859 67.1576 79.9843 68.506V105.473C79.9859 106.821 80.5231 108.114 81.4781 109.067C82.4331 110.021 83.728 110.557 85.0786 110.558H187.76C188.194 110.559 188.624 110.649 189.022 110.824C189.419 110.999 189.776 111.254 190.07 111.573L209.501 132.735C209.635 132.881 209.809 132.982 210.001 133.027C210.194 133.072 210.395 133.057 210.579 132.986C210.763 132.914 210.921 132.789 211.033 132.626C211.144 132.464 211.204 132.271 211.204 132.074V113.688C211.205 112.858 211.535 112.063 212.123 111.476C212.71 110.889 213.507 110.559 214.338 110.558H218.11C219.46 110.557 220.755 110.021 221.71 109.067C222.665 108.114 223.202 106.821 223.204 105.473V68.506C223.202 67.1576 222.665 65.865 221.71 64.9116C220.755 63.9581 219.46 63.4218 218.11 63.4203L85.0786 63.4203Z" fill="#3F3D56"/>
<path d="M14.4164 147.061C17.2568 147.061 19.5594 144.762 19.5594 141.926C19.5594 139.091 17.2568 136.792 14.4164 136.792C11.576 136.792 9.27344 139.091 9.27344 141.926C9.27344 144.762 11.576 147.061 14.4164 147.061Z" fill="#CCCCCC"/>
<path d="M132.908 170.336H11.877C11.5166 170.336 11.1595 170.266 10.8264 170.129C10.4932 169.991 10.1905 169.79 9.9354 169.535C9.68035 169.281 9.47801 168.979 9.33996 168.646C9.20191 168.314 9.13086 167.958 9.13086 167.598C9.13086 167.238 9.20191 166.882 9.33996 166.549C9.47801 166.217 9.68035 165.915 9.9354 165.66C10.1905 165.406 10.4932 165.204 10.8264 165.067C11.1595 164.93 11.5166 164.859 11.877 164.859H132.908C133.635 164.859 134.333 165.148 134.847 165.662C135.362 166.175 135.651 166.872 135.651 167.598C135.651 168.324 135.362 169.021 134.847 169.534C134.333 170.048 133.635 170.336 132.908 170.336Z" fill="#CCCCCC"/>
<path d="M93.4786 158.698H11.877C11.5166 158.699 11.1595 158.628 10.8264 158.491C10.4932 158.353 10.1905 158.152 9.9354 157.897C9.68035 157.643 9.47801 157.341 9.33996 157.009C9.20191 156.676 9.13086 156.32 9.13086 155.96C9.13086 155.6 9.20191 155.244 9.33996 154.911C9.47801 154.579 9.68035 154.277 9.9354 154.023C10.1905 153.768 10.4932 153.567 10.8264 153.429C11.1595 153.292 11.5166 153.221 11.877 153.222H93.4786C93.8391 153.221 94.1961 153.292 94.5293 153.429C94.8625 153.567 95.1652 153.768 95.4203 154.023C95.6753 154.277 95.8777 154.579 96.0157 154.911C96.1538 155.244 96.2248 155.6 96.2248 155.96C96.2248 156.32 96.1538 156.676 96.0157 157.009C95.8777 157.341 95.6753 157.643 95.4203 157.897C95.1652 158.152 94.8625 158.353 94.5293 158.491C94.1961 158.628 93.8391 158.699 93.4786 158.698Z" fill="#CCCCCC"/>
<path d="M93.6185 78.9456C96.4589 78.9456 98.7615 76.6469 98.7615 73.8113C98.7615 70.9757 96.4589 68.677 93.6185 68.677C90.7782 68.677 88.4756 70.9757 88.4756 73.8113C88.4756 76.6469 90.7782 78.9456 93.6185 78.9456Z" fill="#3F3D56"/>
<path d="M212.11 102.221H91.0788C90.3514 102.221 89.6537 101.933 89.1393 101.419C88.6249 100.906 88.3359 100.209 88.3359 99.4828C88.3359 98.7566 88.6249 98.0601 89.1393 97.5465C89.6537 97.033 90.3514 96.7445 91.0788 96.7445H212.11C212.837 96.7445 213.535 97.033 214.049 97.5465C214.564 98.0601 214.853 98.7566 214.853 99.4828C214.853 100.209 214.564 100.906 214.049 101.419C213.535 101.933 212.837 102.221 212.11 102.221Z" fill="#E4272B"/>
<path d="M172.681 90.5834H91.0792C90.7187 90.5838 90.3617 90.5133 90.0285 90.3759C89.6954 90.2384 89.3926 90.0368 89.1375 89.7825C88.8825 89.5282 88.6802 89.2262 88.5421 88.8937C88.4041 88.5613 88.333 88.2049 88.333 87.8451C88.333 87.4852 88.4041 87.1288 88.5421 86.7964C88.6802 86.464 88.8825 86.162 89.1375 85.9076C89.3926 85.6533 89.6954 85.4517 90.0285 85.3143C90.3617 85.1769 90.7187 85.1063 91.0792 85.1068H172.681C173.041 85.1063 173.398 85.1769 173.731 85.3143C174.065 85.4517 174.367 85.6533 174.622 85.9076C174.877 86.162 175.08 86.464 175.218 86.7964C175.356 87.1288 175.427 87.4852 175.427 87.8451C175.427 88.2049 175.356 88.5613 175.218 88.8937C175.08 89.2262 174.877 89.5282 174.622 89.7825C174.367 90.0368 174.065 90.2384 173.731 90.3759C173.398 90.5133 173.041 90.5838 172.681 90.5834Z" fill="#E4272B"/>
<path d="M212.057 140.873C212.175 140.311 212.415 139.781 212.76 139.32C213.104 138.86 213.546 138.481 214.054 138.21C214.561 137.939 215.122 137.782 215.697 137.751C216.272 137.719 216.847 137.814 217.381 138.028L226.567 127.49L228.518 134.484L219.496 143.418C219.075 144.29 218.35 144.978 217.455 145.351C216.561 145.725 215.561 145.758 214.644 145.444C213.727 145.13 212.958 144.492 212.481 143.649C212.004 142.807 211.853 141.819 212.057 140.873Z" fill="#FFB8B8"/>
<path d="M262.475 91.4224C267.787 91.4224 272.093 87.1236 272.093 81.8209C272.093 76.5181 267.787 72.2193 262.475 72.2193C257.163 72.2193 252.857 76.5181 252.857 81.8209C252.857 87.1236 257.163 91.4224 262.475 91.4224Z" fill="#FFB8B8"/>
<path d="M251.176 213.982L246.376 213.981L244.092 195.495L251.178 195.496L251.176 213.982Z" fill="#FFB8B8"/>
<path d="M252.4 218.628L236.921 218.627V218.432C236.921 217.642 237.077 216.859 237.38 216.13C237.682 215.4 238.126 214.737 238.686 214.178C239.245 213.62 239.909 213.177 240.64 212.874C241.371 212.572 242.155 212.417 242.946 212.417L252.401 212.417L252.4 218.628Z" fill="#2F2E41"/>
<path d="M265.665 219.064L260.864 219.063L260.199 201.019L265.666 200.578L265.665 219.064Z" fill="#FFB8B8"/>
<path d="M266.89 223.71L251.41 223.709V223.514C251.41 222.724 251.566 221.941 251.869 221.212C252.172 220.482 252.615 219.819 253.175 219.26C253.734 218.702 254.399 218.259 255.13 217.956C255.861 217.654 256.644 217.499 257.435 217.499L266.89 217.499L266.89 223.71Z" fill="#2F2E41"/>
<path d="M264.299 215.69L260.561 215.251C260.137 215.2 259.746 214.998 259.46 214.681C259.174 214.365 259.012 213.955 259.005 213.529L258.304 164.922C258.302 164.784 258.252 164.652 258.162 164.548C258.072 164.444 257.948 164.374 257.812 164.352C257.676 164.33 257.537 164.356 257.418 164.426C257.299 164.496 257.209 164.605 257.163 164.735L251.977 179.355L252.347 206.76C252.354 207.212 252.185 207.649 251.877 207.981C251.568 208.312 251.144 208.512 250.692 208.539L245.811 208.746C245.365 208.772 244.925 208.628 244.58 208.343C244.236 208.059 244.012 207.655 243.953 207.212L241.404 176.211L241.402 176.192L245.27 143.816L274.319 145.914L266.255 214.149C266.204 214.577 265.998 214.971 265.676 215.257C265.354 215.543 264.938 215.702 264.506 215.702C264.437 215.703 264.368 215.698 264.299 215.69Z" fill="#2F2E41"/>
<path d="M245.395 146.686C245.134 146.547 244.913 146.344 244.751 146.097C244.59 145.85 244.494 145.566 244.473 145.271C244.473 145.271 247.085 129.054 248.042 128.75L245.948 111.407C245.697 109.292 245.872 107.148 246.462 105.101C247.053 103.054 248.047 101.146 249.386 99.4878C250.676 97.8792 252.279 96.5482 254.098 95.5752C255.917 94.6021 257.915 94.0072 259.971 93.8263C260.264 93.7999 260.555 93.7798 260.845 93.7659C263.323 93.6334 265.797 94.1003 268.056 95.1268C270.315 96.1532 272.292 97.709 273.819 99.6619C275.404 101.631 276.488 103.954 276.981 106.432C277.473 108.91 277.358 111.47 276.646 113.894L275.472 117.975V146.495C275.471 146.774 275.404 147.048 275.277 147.296C275.151 147.544 274.968 147.759 274.743 147.924C271.085 150.604 266.951 151.551 262.934 151.551C255.333 151.551 248.149 148.158 245.395 146.686Z" fill="#E4272B"/>
<path d="M222.843 141.467L217.791 137.695C217.593 137.547 217.428 137.359 217.307 137.143C217.187 136.928 217.113 136.689 217.091 136.443C217.069 136.197 217.099 135.949 217.179 135.715C217.26 135.482 217.388 135.267 217.557 135.087L247.656 102.845C248.622 101.82 249.924 101.173 251.327 101.025C252.73 100.876 254.139 101.234 255.3 102.034C256.007 102.526 256.597 103.168 257.027 103.914C257.458 104.66 257.718 105.491 257.79 106.348C257.862 107.206 257.744 108.069 257.444 108.876C257.144 109.683 256.669 110.413 256.054 111.016L225.133 141.314C224.861 141.582 224.509 141.755 224.13 141.805C223.75 141.855 223.365 141.78 223.033 141.591C222.967 141.553 222.904 141.512 222.843 141.467Z" fill="#E4272B"/>
<path d="M261.512 137.198C261.733 136.667 262.068 136.191 262.493 135.804C262.918 135.416 263.423 135.126 263.972 134.954C264.521 134.783 265.102 134.733 265.672 134.81C266.243 134.886 266.79 135.087 267.274 135.397L278.272 126.76L278.879 133.994L268.342 141.087C267.766 141.865 266.924 142.405 265.976 142.605C265.028 142.805 264.039 142.65 263.197 142.171C262.355 141.692 261.718 140.921 261.408 140.004C261.097 139.087 261.134 138.089 261.512 137.198Z" fill="#FFB8B8"/>
<path d="M271.356 140.57C271.065 140.479 270.803 140.315 270.595 140.092C270.387 139.869 270.242 139.596 270.172 139.3L269.061 134.641C268.98 134.311 268.998 133.963 269.113 133.643C269.228 133.322 269.434 133.042 269.708 132.838L277.183 124.768L266.187 107.842C265.355 106.819 264.886 105.55 264.853 104.232C264.821 102.915 265.226 101.624 266.006 100.561C266.629 99.714 267.464 99.0463 268.428 98.6254C269.391 98.2045 270.45 98.0454 271.495 98.1642C272.54 98.283 273.535 98.6755 274.38 99.302C275.224 99.9284 275.888 100.767 276.303 101.731L286.525 121.595C287.541 123.568 287.795 125.846 287.237 127.994C286.68 130.142 285.35 132.01 283.502 133.242L273.055 140.209C272.736 140.494 272.321 140.652 271.892 140.653C271.71 140.653 271.529 140.625 271.356 140.57Z" fill="#E4272B"/>
<path d="M269.602 90.4044C269.375 90.5402 269.12 90.6221 268.857 90.6438C268.593 90.6654 268.328 90.6263 268.082 90.5293C267.837 90.4324 267.616 90.2802 267.439 90.0847C267.261 89.8892 267.131 89.6555 267.059 89.4017L267.053 89.3778C266.857 88.5789 267.012 87.7428 267.062 86.9219C267.113 86.101 267.028 85.1999 266.464 84.5995C265.415 83.4803 263.561 84.0865 262.051 83.8102C261.166 83.6179 260.381 83.1103 259.844 82.3824C259.307 81.6544 259.054 80.7559 259.132 79.8552C259.153 79.6845 259.186 79.5136 259.223 79.3427C259.315 78.9098 259.305 78.4615 259.194 78.033C259.084 77.6045 258.875 77.2074 258.585 76.8729C258.294 76.5384 257.93 76.2757 257.521 76.1053C257.112 75.9349 256.669 75.8615 256.227 75.8909C254.702 75.9861 253.058 76.4562 251.791 75.3352C251.326 74.8929 251.001 74.3237 250.858 73.6986C250.715 73.0734 250.76 72.4201 250.987 71.8202C251.696 69.7402 253.726 68.6424 255.738 68.0342C258.227 67.302 260.847 67.1325 263.409 67.5382C265.972 67.9439 268.411 68.9145 270.551 70.3794C271.828 71.2682 273.023 72.3872 273.573 73.8415C274.123 75.2958 273.872 77.1357 272.653 78.1042C273.607 79.1014 274.281 80.3312 274.609 81.6705C274.936 83.0099 274.906 84.4116 274.519 85.7353C273.926 87.6821 271.052 89.5609 269.602 90.4044Z" fill="#2F2E41"/>
<path d="M330 223.609C330 223.713 329.959 223.812 329.885 223.885C329.812 223.958 329.712 224 329.609 224H180.415C180.311 224 180.212 223.959 180.138 223.885C180.065 223.812 180.023 223.713 180.023 223.609C180.023 223.505 180.065 223.406 180.138 223.333C180.212 223.259 180.311 223.218 180.415 223.218H329.609C329.712 223.218 329.812 223.26 329.885 223.333C329.959 223.406 330 223.505 330 223.609Z" fill="#3F3D56"/>
</g>
<defs>
<clipPath id="clip0_139_1595">
<rect width="330" height="224" fill="white"/>
</clipPath>
</defs>
</svg>
