<svg width="24" height="25" viewBox="0 0 24 25" fill="none" xmlns="http://www.w3.org/2000/svg">
<path d="M20.4054 4.13745C18.1607 1.85784 15.1714 0.604057 11.9946 0.604057C5.4375 0.604057 0.101786 6.00998 0.101786 12.6534C0.101786 14.7756 0.648214 16.849 1.6875 18.6781L0 24.9198L6.30536 23.2427C8.04107 24.2034 9.99643 24.7082 11.9893 24.7082H11.9946C18.5464 24.7082 24 19.3022 24 12.6588C24 9.44024 22.65 6.41705 20.4054 4.13745ZM11.9946 22.6782C10.2161 22.6782 8.475 22.1952 6.95893 21.2833L6.6 21.0662L2.86071 22.0595L3.85714 18.3633L3.62143 17.9833C2.63036 16.3876 2.11071 14.5476 2.11071 12.6534C2.11071 7.1335 6.54643 2.63942 12 2.63942C14.6411 2.63942 17.1214 3.68152 18.9857 5.57577C20.85 7.47001 21.9964 9.98301 21.9911 12.6588C21.9911 18.1842 17.4429 22.6782 11.9946 22.6782ZM17.4161 15.1772C17.1214 15.0253 15.6589 14.298 15.3857 14.2003C15.1125 14.0971 14.9143 14.0483 14.7161 14.3522C14.5179 14.6562 13.95 15.3292 13.7732 15.5355C13.6018 15.7363 13.425 15.7634 13.1304 15.6115C11.3839 14.7268 10.2375 14.032 9.08571 12.0292C8.78036 11.4973 9.39107 11.5353 9.95893 10.3846C10.0554 10.1838 10.0071 10.0101 9.93214 9.85817C9.85714 9.7062 9.2625 8.22445 9.01607 7.62199C8.775 7.0358 8.52857 7.11722 8.34643 7.10636C8.175 7.09551 7.97679 7.09551 7.77857 7.09551C7.58036 7.09551 7.25893 7.17149 6.98571 7.47001C6.7125 7.77396 5.94643 8.50126 5.94643 9.98301C5.94643 11.4647 7.0125 12.8976 7.15714 13.0985C7.30714 13.2993 9.25179 16.3388 12.2357 17.6468C14.1214 18.4718 14.8607 18.5424 15.8036 18.4013C16.3768 18.3144 17.5607 17.674 17.8071 16.9684C18.0536 16.2628 18.0536 15.6603 17.9786 15.5355C17.9089 15.3998 17.7107 15.3238 17.4161 15.1772Z" fill="#E4272B"/>
</svg>
